<?xml version="1.0" encoding="utf-8"?>
<!-- Generator: Adobe Illustrator 24.1.2, SVG Export Plug-In . SVG Version: 6.00 Build 0)  -->
<svg version="1.1" id="Calque_1" xmlns="http://www.w3.org/2000/svg" xmlns:xlink="http://www.w3.org/1999/xlink" x="0px" y="0px"
	 viewBox="0 0 895.28 885.89" style="enable-background:new 0 0 895.28 885.89;" xml:space="preserve">
<style type="text/css">
	.st0{fill:#F7F7FF;}
</style>
<g>
	<g>
		<g>
			<polygon class="st0" points="656.21,218.86 505.79,109.78 421.91,144.49 656.21,314.41 890.5,144.49 806.62,109.78 			"/>
		</g>
	</g>
	<g>
		<path class="st0" d="M469.84,888.13l-4.03-106.95c158.45-5.97,249.33-53.76,249.33-131.13c0-85.48-71.19-129.63-71.91-130.05
			l-2.37-1.39l-2.21-1.62L246.92,229.59l63.31-86.29l390.12,286.21c19.37,12.34,121.81,84.1,121.81,220.54
			c0,66.26-31.72,125.4-89.3,166.53C672.4,859.76,583.91,883.83,469.84,888.13z"/>
	</g>
	<g>
		<polygon class="st0" points="128.16,442.01 -3.5,537.49 -3.5,633.04 128.16,537.55 278.58,646.64 362.46,611.93 		"/>
	</g>
	<g>
		<path class="st0" d="M143.14,236.65l-2.37-1.39c-0.72-0.42-71.91-44.57-71.91-130.05c0-45.77,31.82-81.19,90.63-103.73H-0.5V238.8
			c31.32,50.96,72.57,79.57,84.15,86.94l390.12,286.21l63.31-86.29L145.36,238.27L143.14,236.65z"/>
	</g>
</g>
</svg>
