<?xml version="1.0" encoding="utf-8"?>
<!-- Generator: Adobe Illustrator 24.1.2, SVG Export Plug-In . SVG Version: 6.00 Build 0)  -->
<svg version="1.1" id="Calque_1" xmlns="http://www.w3.org/2000/svg" xmlns:xlink="http://www.w3.org/1999/xlink" x="0px" y="0px"
	 viewBox="0 0 43.28 43.89" style="enable-background:new 0 0 43.28 43.89;" xml:space="preserve">
<style type="text/css">
	.st0{fill:#2A3B49;}
	.st1{fill:#FFFFFF;}
	.st2{fill:#F7F7FF;}
</style>
<g>
	<g>
		<circle class="st0" cx="21.5" cy="21.81" r="20.5"/>
		<path class="st1" d="M21.5,2.02c10.91,0,19.79,8.88,19.79,19.79S32.42,41.59,21.5,41.59S1.72,32.72,1.72,21.81
			S10.59,2.02,21.5,2.02 M21.5,1.02c-11.48,0-20.79,9.31-20.79,20.79c0,11.48,9.31,20.79,20.79,20.79s20.79-9.31,20.79-20.79
			C42.29,10.32,32.98,1.02,21.5,1.02L21.5,1.02z"/>
	</g>
	<g>
		<g>
			
				<rect x="19.78" y="10.4" transform="matrix(0.7071 -0.7071 0.7071 0.7071 -8.749 21.7463)" class="st2" width="4.19" height="22.06"/>
		</g>
		<g>
			
				<rect x="10.85" y="19.34" transform="matrix(0.7071 -0.7071 0.7071 0.7071 -8.749 21.7463)" class="st2" width="22.06" height="4.19"/>
		</g>
	</g>
</g>
</svg>
