<?xml version="1.0" encoding="utf-8"?>
<!-- Generator: Adobe Illustrator 24.1.2, SVG Export Plug-In . SVG Version: 6.00 Build 0)  -->
<svg version="1.1" id="Calque_1" xmlns="http://www.w3.org/2000/svg" xmlns:xlink="http://www.w3.org/1999/xlink" x="0px" y="0px"
	 viewBox="0 0 45.28 47.89" style="enable-background:new 0 0 45.28 47.89;" xml:space="preserve">
<style type="text/css">
	.st0{fill:#495867;}
</style>
<g>
	<g>
		<path class="st0" d="M42.16,16.66c0,8.24,0,16.48,0,24.72c-0.4,1.58-1.55,2.09-3.03,2.09c-11.18-0.03-22.36-0.02-33.53-0.02
			c-1.75,0-2.74-0.98-2.74-2.73c0-2.71,0-5.42,0-8.13c0-8.57,0-17.14,0.01-25.71c0-0.46,0.09-0.95,0.27-1.37
			c0.32-0.77,1-1.16,1.79-1.36c8.24,0,16.48,0,24.72,0c0.06,0.02,0.11,0.06,0.17,0.07c1.42,0.28,2.67,0.88,3.71,1.93
			c2.23,2.25,4.49,4.47,6.7,6.73c0.51,0.52,0.92,1.16,1.26,1.81C41.79,15.3,41.94,16,42.16,16.66z M9.4,40.15c0-0.2,0-0.35,0-0.51
			c0-3.3,0-6.6,0-9.9c0-1.63,0.98-2.66,2.57-2.66c7.02-0.01,14.04-0.01,21.07,0.01c0.4,0,0.83,0.08,1.18,0.25
			c1.01,0.48,1.4,1.35,1.39,2.44c-0.01,3.3,0,6.6,0,9.9c0,0.15,0,0.3,0,0.46c1.11,0,2.17,0,3.25,0c0.01-0.09,0.02-0.15,0.02-0.22
			c0-7.52,0-15.04-0.01-22.56c0-0.77-0.28-1.48-0.81-2.02c-2.34-2.38-4.71-4.74-7.08-7.09c-0.51-0.51-1.17-0.73-1.93-0.82
			c0,0.2,0,0.35,0,0.5c0,3.31,0,6.63,0,9.94c0,1.62-0.96,2.63-2.54,2.64c-4.85,0.01-9.7,0.01-14.54-0.01c-0.38,0-0.8-0.07-1.15-0.24
			C9.8,19.8,9.4,18.94,9.4,17.84c0-3.31,0-6.63,0-9.94c0-0.15,0-0.3,0-0.45c-1.12,0-2.18,0-3.24,0c0,10.91,0,21.79,0,32.69
			C7.24,40.15,8.3,40.15,9.4,40.15z M12.69,40.14c6.56,0,13.09,0,19.62,0c0-3.27,0-6.52,0-9.76c-6.55,0-13.08,0-19.62,0
			C12.69,33.64,12.69,36.87,12.69,40.14z M19.23,12.33c0,1.28,0,2.56,0,3.84c0,0.77,0.31,1.08,1.06,1.08c1.47,0,2.94,0,4.41,0
			c0.78,0,1.08-0.31,1.08-1.1c0-2.55,0-5.09,0-7.64c0-0.8-0.29-1.09-1.08-1.09c-1.46,0-2.92,0-4.37,0c-0.82,0-1.1,0.28-1.1,1.11
			C19.22,9.8,19.23,11.07,19.23,12.33z"/>
	</g>
</g>
</svg>
