<?xml version="1.0" encoding="utf-8"?>
<!-- Generator: Adobe Illustrator 24.1.2, SVG Export Plug-In . SVG Version: 6.00 Build 0)  -->
<svg version="1.1" id="Calque_1" xmlns="http://www.w3.org/2000/svg" xmlns:xlink="http://www.w3.org/1999/xlink" x="0px" y="0px"
	 viewBox="0 0 51.4 49.66" style="enable-background:new 0 0 51.4 49.66;" xml:space="preserve">
<style type="text/css">
	.st0{fill:#495867;}
</style>
<g>
	<path class="st0" d="M25.29,47.9c-4.83-2.23-9.66-4.47-14.49-6.7c-2.29-1.06-4.57-2.13-6.86-3.16c-0.7-0.32-1-0.8-0.99-1.55
		c0.01-7.93,0-15.86,0.01-23.78c0-1.25,0.83-1.79,1.96-1.29c6.74,2.96,13.47,5.92,20.21,8.89c0.32,0.14,0.57,0.14,0.89,0
		c5.79-2.56,11.59-5.1,17.39-7.65c0.14-0.06,0.27-0.13,0.46-0.22c-0.27-0.13-0.47-0.23-0.69-0.33C37.44,9.49,31.7,6.89,25.96,4.28
		c-0.29-0.13-0.51-0.13-0.8,0c-4.5,2.05-9,4.1-13.51,6.13c-0.26,0.12-0.54,0.22-0.81,0.25c-0.56,0.05-1.04-0.31-1.21-0.83
		c-0.17-0.54,0.02-1.13,0.51-1.42C10.41,8.25,10.71,8.13,11,8c4.6-2.09,9.2-4.17,13.79-6.27c0.54-0.25,1.02-0.24,1.55,0.01
		c6.94,3.16,13.89,6.32,20.84,9.46c0.7,0.32,0.99,0.79,0.99,1.55c-0.01,7.9-0.01,15.8,0,23.69c0,0.79-0.31,1.28-1.04,1.62
		c-6.95,3.19-13.88,6.4-20.82,9.61c-0.16,0.08-0.32,0.16-0.49,0.23C25.65,47.9,25.47,47.9,25.29,47.9z M24.32,44.69
		c0-0.25,0-0.43,0-0.61c0-5.24,0-10.48,0-15.72c0-1.06,0.46-1.66,1.26-1.63c0.6,0.02,1.24,0.41,1.24,1.62
		c-0.02,5.25-0.01,10.51-0.01,15.76c0,0.17,0.02,0.34,0.03,0.55c0.18-0.07,0.29-0.11,0.39-0.16c6.04-2.79,12.07-5.58,18.11-8.36
		c0.29-0.13,0.36-0.29,0.36-0.58c-0.01-6.93-0.01-13.86-0.01-20.79c0-0.13-0.02-0.25-0.03-0.42c-0.21,0.09-0.37,0.15-0.54,0.23
		c-6.24,2.74-12.48,5.48-18.71,8.23c-0.59,0.26-1.1,0.26-1.68,0c-6.23-2.75-12.48-5.49-18.71-8.23c-0.17-0.08-0.35-0.15-0.56-0.23
		c-0.01,0.16-0.02,0.26-0.02,0.37c0,6.96,0,13.92-0.01,20.88c0,0.32,0.14,0.44,0.39,0.56c6.01,2.77,12.02,5.55,18.03,8.32
		C23.98,44.55,24.12,44.61,24.32,44.69z"/>
</g>
</svg>
