<?xml version="1.0" encoding="utf-8"?>
<!-- Generator: Adobe Illustrator 24.1.2, SVG Export Plug-In . SVG Version: 6.00 Build 0)  -->
<svg version="1.1" id="Calque_1" xmlns="http://www.w3.org/2000/svg" xmlns:xlink="http://www.w3.org/1999/xlink" x="0px" y="0px"
	 viewBox="0 0 44.9 44.9" style="enable-background:new 0 0 44.9 44.9;" xml:space="preserve">
<style type="text/css">
	.st0{fill:#495867;}
</style>
<g>
	<g>
		<path class="st0" d="M41.7,15.7c0,8.2,0,16.5,0,24.7c-0.4,1.6-1.5,2.1-3,2.1c-11.2,0-22.4,0-33.5,0c-1.8,0-2.7-1-2.7-2.7
			c0-2.7,0-5.4,0-8.1c0-8.6,0-17.1,0-25.7c0-0.5,0.1-0.9,0.3-1.4c0.3-0.8,1-1.2,1.8-1.4c8.2,0,16.5,0,24.7,0c0.1,0,0.1,0.1,0.2,0.1
			c1.4,0.3,2.7,0.9,3.7,1.9c2.2,2.3,4.5,4.5,6.7,6.7c0.5,0.5,0.9,1.2,1.3,1.8C41.4,14.4,41.5,15.1,41.7,15.7z M9,39.2
			c0-0.2,0-0.4,0-0.5c0-3.3,0-6.6,0-9.9c0-1.6,1-2.7,2.6-2.7c7,0,14,0,21.1,0c0.4,0,0.8,0.1,1.2,0.2c1,0.5,1.4,1.4,1.4,2.4
			c0,3.3,0,6.6,0,9.9c0,0.1,0,0.3,0,0.5c1.1,0,2.2,0,3.2,0c0-0.1,0-0.2,0-0.2c0-7.5,0-15,0-22.6c0-0.8-0.3-1.5-0.8-2
			c-2.3-2.4-4.7-4.7-7.1-7.1c-0.5-0.5-1.2-0.7-1.9-0.8c0,0.2,0,0.4,0,0.5c0,3.3,0,6.6,0,9.9c0,1.6-1,2.6-2.5,2.6
			c-4.8,0-9.7,0-14.5,0c-0.4,0-0.8-0.1-1.1-0.2C9.4,18.9,9,18,9,16.9c0-3.3,0-6.6,0-9.9c0-0.1,0-0.3,0-0.4c-1.1,0-2.2,0-3.2,0
			c0,10.9,0,21.8,0,32.7C6.8,39.2,7.9,39.2,9,39.2z M12.3,39.2c6.6,0,13.1,0,19.6,0c0-3.3,0-6.5,0-9.8c-6.6,0-13.1,0-19.6,0
			C12.3,32.7,12.3,35.9,12.3,39.2z M18.8,11.4c0,1.3,0,2.6,0,3.8c0,0.8,0.3,1.1,1.1,1.1c1.5,0,2.9,0,4.4,0c0.8,0,1.1-0.3,1.1-1.1
			c0-2.5,0-5.1,0-7.6c0-0.8-0.3-1.1-1.1-1.1c-1.5,0-2.9,0-4.4,0c-0.8,0-1.1,0.3-1.1,1.1C18.8,8.9,18.8,10.1,18.8,11.4z"/>
	</g>
</g>
</svg>
