<?xml version="1.0" encoding="utf-8"?>
<!-- Generator: Adobe Illustrator 24.1.2, SVG Export Plug-In . SVG Version: 6.00 Build 0)  -->
<svg version="1.1" id="Calque_1" xmlns="http://www.w3.org/2000/svg" xmlns:xlink="http://www.w3.org/1999/xlink" x="0px" y="0px"
	 viewBox="0 0 173.28 54.89" style="enable-background:new 0 0 173.28 54.89;" xml:space="preserve">
<style type="text/css">
	.st0{fill:#FFFFFF;}
</style>
<g>
	<path class="st0" d="M68.4,32.08c0-0.86-0.3-1.51-0.91-1.97c-0.6-0.46-1.69-0.94-3.26-1.45c-1.57-0.51-2.82-1.01-3.73-1.5
		c-2.5-1.35-3.75-3.17-3.75-5.46c0-1.19,0.33-2.25,1-3.18c0.67-0.93,1.63-1.66,2.89-2.18c1.25-0.52,2.66-0.79,4.22-0.79
		c1.57,0,2.97,0.28,4.2,0.85s2.18,1.37,2.86,2.41c0.68,1.04,1.02,2.22,1.02,3.54h-4.53c0-1.01-0.32-1.79-0.95-2.35
		s-1.53-0.84-2.67-0.84c-1.11,0-1.97,0.23-2.58,0.7c-0.62,0.47-0.92,1.09-0.92,1.85c0,0.72,0.36,1.31,1.08,1.8
		c0.72,0.48,1.78,0.94,3.18,1.36c2.58,0.78,4.46,1.74,5.64,2.89c1.18,1.15,1.77,2.58,1.77,4.29c0,1.9-0.72,3.4-2.16,4.48
		c-1.44,1.08-3.38,1.63-5.82,1.63c-1.69,0-3.23-0.31-4.63-0.93c-1.39-0.62-2.45-1.47-3.18-2.55s-1.1-2.33-1.1-3.75h4.55
		c0,2.43,1.45,3.64,4.35,3.64c1.08,0,1.92-0.22,2.52-0.66S68.4,32.86,68.4,32.08z"/>
	<path class="st0" d="M82.53,34.63c0.81,0,1.46-0.22,1.96-0.67s0.77-1.03,0.79-1.77h4.1c-0.01,1.11-0.31,2.12-0.91,3.04
		s-1.41,1.64-2.44,2.15c-1.03,0.51-2.17,0.76-3.42,0.76c-2.34,0-4.18-0.74-5.53-2.23c-1.35-1.49-2.03-3.54-2.03-6.16v-0.29
		c0-2.52,0.67-4.53,2.01-6.03c1.34-1.5,3.18-2.25,5.52-2.25c2.04,0,3.68,0.58,4.92,1.75s1.86,2.71,1.88,4.65h-4.1
		c-0.02-0.85-0.28-1.54-0.79-2.07s-1.17-0.8-2-0.8c-1.02,0-1.79,0.37-2.3,1.11c-0.52,0.74-0.78,1.94-0.78,3.61v0.45
		c0,1.69,0.26,2.9,0.77,3.63S81.49,34.63,82.53,34.63z"/>
	<path class="st0" d="M101.06,25.59c-0.59-0.08-1.12-0.12-1.57-0.12c-1.65,0-2.74,0.56-3.25,1.68v10.7h-4.37V21.5H96l0.12,1.95
		c0.88-1.5,2.09-2.25,3.64-2.25c0.48,0,0.94,0.07,1.36,0.2L101.06,25.59z"/>
	<path class="st0" d="M112.19,37.85c-0.2-0.39-0.35-0.88-0.44-1.47c-1.06,1.18-2.43,1.77-4.13,1.77c-1.6,0-2.93-0.46-3.98-1.39
		s-1.58-2.1-1.58-3.51c0-1.73,0.64-3.06,1.93-3.99c1.29-0.93,3.14-1.4,5.57-1.41h2.01v-0.94c0-0.76-0.2-1.36-0.58-1.81
		c-0.39-0.45-1-0.68-1.84-0.68c-0.74,0-1.31,0.18-1.73,0.53s-0.63,0.84-0.63,1.45h-4.37c0-0.95,0.29-1.82,0.88-2.63
		s1.41-1.44,2.48-1.9c1.07-0.46,2.27-0.69,3.6-0.69c2.01,0,3.61,0.51,4.8,1.52c1.19,1.01,1.78,2.44,1.78,4.27v7.09
		c0.01,1.55,0.23,2.72,0.65,3.52v0.26H112.19z M108.57,34.81c0.64,0,1.24-0.14,1.78-0.43c0.54-0.29,0.95-0.67,1.21-1.16v-2.81h-1.63
		c-2.19,0-3.35,0.75-3.49,2.27l-0.02,0.26c0,0.54,0.19,0.99,0.57,1.34S107.91,34.81,108.57,34.81z"/>
	<path class="st0" d="M134.02,29.83c0,2.52-0.57,4.54-1.71,6.05c-1.14,1.52-2.69,2.27-4.63,2.27c-1.65,0-2.99-0.57-4.01-1.72v7.71
		h-4.37V21.5h4.05l0.15,1.6c1.06-1.27,2.44-1.9,4.14-1.9c2.02,0,3.58,0.75,4.7,2.24c1.12,1.49,1.68,3.55,1.68,6.17V29.83z
		 M129.65,29.51c0-1.52-0.27-2.7-0.81-3.52c-0.54-0.83-1.32-1.24-2.35-1.24c-1.37,0-2.31,0.52-2.83,1.57v6.69
		c0.54,1.08,1.49,1.62,2.86,1.62C128.61,34.63,129.65,32.92,129.65,29.51z"/>
	<path class="st0" d="M137.54,22.6l-2.05-1.19c0.87-1.36,1.31-2.77,1.35-4.22v-2.55h3.47v2.34c0,0.91-0.25,1.89-0.76,2.95
		C139.05,20.98,138.38,21.88,137.54,22.6z"/>
	<path class="st0" d="M143.36,17.27c0-0.65,0.22-1.19,0.66-1.62c0.44-0.42,1.04-0.63,1.79-0.63c0.74,0,1.34,0.21,1.78,0.63
		c0.44,0.42,0.66,0.96,0.66,1.62c0,0.67-0.22,1.21-0.67,1.63c-0.45,0.42-1.04,0.63-1.78,0.63c-0.74,0-1.33-0.21-1.78-0.63
		C143.59,18.48,143.36,17.93,143.36,17.27z M148,37.85h-4.38V21.5H148V37.85z"/>
	<path class="st0" d="M155.62,21.5l0.14,1.89c1.17-1.46,2.73-2.19,4.7-2.19c1.73,0,3.02,0.51,3.87,1.53s1.28,2.54,1.3,4.56v10.56
		h-4.37V27.39c0-0.93-0.2-1.6-0.6-2.02c-0.4-0.42-1.07-0.63-2.01-0.63c-1.23,0-2.15,0.52-2.77,1.57v11.53h-4.37V21.5H155.62z"/>
</g>
<g>
	<g>
		<g>
			<polygon class="st0" points="38.16,21.32 31.87,16.76 28.36,18.21 38.16,25.32 47.96,18.21 44.45,16.76 			"/>
		</g>
	</g>
	<g>
		<path class="st0" d="M30.53,37.76L14.21,25.79c-0.81-0.52-5.09-3.52-5.09-9.22c0-2.77,1.33-5.24,3.73-6.96
			c2.53-1.81,6.23-2.81,11-2.99l0.17,4.47c-6.63,0.25-10.43,2.25-10.43,5.48c0,3.58,2.98,5.42,3.01,5.44l0.1,0.06l0.09,0.07
			l16.38,12.02L30.53,37.76z"/>
	</g>
	<g>
		<path class="st0" d="M30.36,49.31l-0.17-4.47c6.63-0.25,10.43-2.25,10.43-5.48c0-3.58-2.98-5.42-3.01-5.44l-0.1-0.06l-0.09-0.07
			L21.04,21.77l2.65-3.61l16.32,11.97c0.81,0.52,5.09,3.52,5.09,9.22c0,2.77-1.33,5.24-3.73,6.96
			C38.84,48.12,35.14,49.13,30.36,49.31z"/>
	</g>
	<g>
		<g>
			<polygon class="st0" points="16.07,34.65 22.37,39.21 25.87,37.76 16.07,30.65 6.28,37.76 9.78,39.21 			"/>
		</g>
	</g>
</g>
</svg>
