<?xml version="1.0" encoding="utf-8"?>
<!-- Generator: Adobe Illustrator 24.1.2, SVG Export Plug-In . SVG Version: 6.00 Build 0)  -->
<svg version="1.1" id="Calque_1" xmlns="http://www.w3.org/2000/svg" xmlns:xlink="http://www.w3.org/1999/xlink" x="0px" y="0px"
	 viewBox="0 0 30 26" style="enable-background:new 0 0 30 26;" xml:space="preserve">
<style type="text/css">
	.st0{fill:#F7F7FF;}
</style>
<g>
	<g>
		<path class="st0" d="M13.16,9.91c1.2,0,2.39,0,3.59,0c0.74,0,1.1,0.37,1.1,1.12c0,1.48,0,2.95,0,4.43c0,0.74-0.37,1.11-1.12,1.11
			c-2.4,0-4.81,0.01-7.21-0.01c-0.33,0-0.45,0.07-0.44,0.42c0.03,0.88,0.01,1.77,0.01,2.65c0,0.47-0.15,0.84-0.6,1.03
			c-0.44,0.19-0.8,0.03-1.12-0.29c-2.15-2.15-4.3-4.3-6.45-6.45c-0.42-0.42-0.39-0.98,0.05-1.43c1.56-1.57,3.13-3.13,4.69-4.69
			c0.57-0.57,1.14-1.13,1.71-1.7c0.32-0.32,0.68-0.47,1.12-0.28c0.44,0.19,0.59,0.55,0.59,1c0,0.92,0.01,1.83,0,2.75
			c0,0.26,0.08,0.35,0.35,0.35C10.68,9.91,11.92,9.91,13.16,9.91C13.16,9.91,13.16,9.91,13.16,9.91z"/>
	</g>
	<g>
		<path class="st0" d="M28.76,13.24c0,3.57,0,7.13,0,10.7c0,0.82-0.35,1.17-1.16,1.17c-5.49,0-10.98,0-16.46,0
			c-0.78,0-1.13-0.35-1.13-1.12c0-1.6,0-3.2,0-4.79c0-0.48,0.27-0.83,0.7-0.95c0.4-0.11,0.85,0.04,1.05,0.41
			c0.1,0.19,0.16,0.42,0.16,0.63c0.02,1.18,0.01,2.37,0,3.55c0,0.28,0.09,0.36,0.36,0.36c4.73-0.01,9.46-0.01,14.18,0
			c0.3,0,0.38-0.1,0.38-0.39c-0.01-6.38-0.01-12.76,0-19.15c0-0.29-0.09-0.38-0.38-0.38c-4.72,0.01-9.43,0.01-14.15,0
			c-0.31,0-0.4,0.1-0.39,0.4c0.01,1.21,0.01,2.41,0,3.62c0,0.5-0.35,0.89-0.82,0.96c-0.45,0.07-0.89-0.19-1.03-0.62
			c-0.05-0.13-0.06-0.28-0.06-0.43c0-1.6-0.01-3.2,0-4.79c0-0.68,0.38-1.05,1.07-1.05c5.53,0,11.06,0,16.6,0
			c0.72,0,1.08,0.37,1.08,1.11C28.76,6.07,28.76,9.66,28.76,13.24C28.76,13.24,28.76,13.24,28.76,13.24z"/>
	</g>
</g>
</svg>
