<?xml version="1.0" encoding="utf-8"?>
<!-- Generator: Adobe Illustrator 24.1.2, SVG Export Plug-In . SVG Version: 6.00 Build 0)  -->
<svg version="1.1" id="Calque_1" xmlns="http://www.w3.org/2000/svg" xmlns:xlink="http://www.w3.org/1999/xlink" x="0px" y="0px"
	 viewBox="0 0 237.28 71.89" style="enable-background:new 0 0 237.28 71.89;" xml:space="preserve">
<style type="text/css">
	.st0{fill:#495867;}
	.st1{fill:#FE5F55;}
</style>
<g>
	<path class="st0" d="M94.04,42.54c0-1.19-0.42-2.11-1.26-2.75s-2.36-1.31-4.55-2.02c-2.19-0.71-3.93-1.41-5.2-2.1
		c-3.48-1.88-5.23-4.42-5.23-7.61c0-1.66,0.47-3.14,1.4-4.44s2.28-2.31,4.02-3.04s3.71-1.1,5.89-1.1c2.19,0,4.14,0.4,5.86,1.19
		c1.71,0.79,3.04,1.91,3.99,3.36c0.95,1.45,1.42,3.09,1.42,4.93h-6.32c0-1.4-0.44-2.5-1.33-3.28c-0.88-0.78-2.13-1.17-3.73-1.17
		c-1.54,0-2.75,0.33-3.6,0.98c-0.86,0.65-1.29,1.51-1.29,2.58c0,1,0.5,1.83,1.51,2.51c1,0.67,2.48,1.31,4.44,1.9
		c3.6,1.08,6.22,2.42,7.86,4.02c1.64,1.6,2.47,3.6,2.47,5.98c0,2.65-1,4.74-3.01,6.25c-2.01,1.51-4.71,2.27-8.11,2.27
		c-2.36,0-4.51-0.43-6.45-1.3c-1.94-0.86-3.42-2.05-4.44-3.55c-1.02-1.5-1.53-3.24-1.53-5.23h6.34c0,3.39,2.02,5.08,6.07,5.08
		c1.5,0,2.68-0.31,3.52-0.92C93.62,44.49,94.04,43.64,94.04,42.54z"/>
	<path class="st0" d="M113.74,46.11c1.12,0,2.04-0.31,2.74-0.93c0.7-0.62,1.07-1.44,1.1-2.47h5.71c-0.01,1.55-0.44,2.96-1.26,4.25
		s-1.96,2.28-3.4,2.99c-1.44,0.71-3.03,1.06-4.77,1.06c-3.26,0-5.83-1.04-7.71-3.11c-1.88-2.07-2.82-4.93-2.82-8.59v-0.4
		c0-3.51,0.93-6.31,2.8-8.41c1.87-2.09,4.43-3.14,7.69-3.14c2.85,0,5.14,0.81,6.86,2.43c1.72,1.62,2.59,3.78,2.62,6.48h-5.71
		c-0.03-1.19-0.39-2.15-1.1-2.89c-0.7-0.74-1.63-1.11-2.78-1.11c-1.42,0-2.49,0.52-3.21,1.55c-0.72,1.03-1.08,2.71-1.08,5.03v0.63
		c0,2.35,0.36,4.04,1.07,5.06C111.2,45.59,112.28,46.11,113.74,46.11z"/>
	<path class="st0" d="M139.57,33.51c-0.83-0.11-1.56-0.17-2.19-0.17c-2.3,0-3.81,0.78-4.53,2.34v14.92h-6.09V27.8h5.75l0.17,2.72
		c1.22-2.09,2.91-3.14,5.08-3.14c0.67,0,1.31,0.09,1.9,0.27L139.57,33.51z"/>
	<path class="st0" d="M155.08,50.59c-0.28-0.55-0.48-1.23-0.61-2.04c-1.47,1.64-3.39,2.46-5.75,2.46c-2.23,0-4.08-0.65-5.55-1.94
		c-1.47-1.29-2.2-2.92-2.2-4.89c0-2.42,0.9-4.27,2.69-5.56c1.79-1.29,4.38-1.95,7.76-1.96h2.8v-1.31c0-1.05-0.27-1.9-0.81-2.53
		c-0.54-0.63-1.39-0.95-2.56-0.95c-1.03,0-1.83,0.25-2.41,0.74c-0.58,0.49-0.87,1.17-0.87,2.02h-6.09c0-1.32,0.41-2.54,1.22-3.67
		c0.81-1.12,1.97-2,3.46-2.64c1.49-0.64,3.16-0.96,5.01-0.96c2.81,0,5.04,0.71,6.69,2.12s2.48,3.4,2.48,5.95v9.88
		c0.01,2.16,0.32,3.8,0.91,4.91v0.36H155.08z M150.05,46.36c0.9,0,1.73-0.2,2.49-0.6s1.32-0.94,1.69-1.61v-3.92h-2.27
		c-3.05,0-4.67,1.05-4.87,3.16l-0.02,0.36c0,0.76,0.27,1.38,0.8,1.88C148.39,46.11,149.12,46.36,150.05,46.36z"/>
	<path class="st0" d="M185.53,39.41c0,3.51-0.8,6.32-2.39,8.44c-1.59,2.11-3.75,3.17-6.46,3.17c-2.3,0-4.17-0.8-5.58-2.4v10.75
		h-6.09V27.8h5.65l0.21,2.23c1.47-1.77,3.4-2.65,5.77-2.65c2.81,0,4.99,1.04,6.55,3.12c1.56,2.08,2.34,4.94,2.34,8.6V39.41z
		 M179.44,38.96c0-2.12-0.38-3.76-1.13-4.91c-0.75-1.15-1.84-1.73-3.28-1.73c-1.91,0-3.22,0.73-3.94,2.19v9.33
		c0.74,1.5,2.07,2.25,3.98,2.25C177.98,46.11,179.44,43.72,179.44,38.96z"/>
	<path class="st0" d="M190.43,29.33l-2.87-1.66c1.21-1.9,1.83-3.86,1.88-5.88v-3.56h4.85v3.27c0,1.26-0.35,2.63-1.05,4.11
		C192.53,27.08,191.6,28.32,190.43,29.33z"/>
	<path class="st0" d="M198.55,21.9c0-0.91,0.3-1.66,0.92-2.25s1.44-0.88,2.5-0.88c1.04,0,1.87,0.29,2.49,0.88
		c0.62,0.59,0.93,1.34,0.93,2.25c0,0.93-0.31,1.69-0.94,2.28s-1.45,0.88-2.48,0.88c-1.03,0-1.85-0.29-2.48-0.88
		S198.55,22.82,198.55,21.9z M205.01,50.59h-6.11V27.8h6.11V50.59z"/>
	<path class="st0" d="M215.63,27.8l0.19,2.63c1.63-2.04,3.81-3.05,6.55-3.05c2.42,0,4.21,0.71,5.39,2.13
		c1.18,1.42,1.78,3.54,1.81,6.36v14.73h-6.09V36.01c0-1.29-0.28-2.23-0.84-2.81c-0.56-0.58-1.5-0.87-2.8-0.87
		c-1.71,0-3,0.73-3.86,2.19v16.08h-6.09V27.8H215.63z"/>
</g>
<g>
	<g>
		<polygon class="st1" points="51.88,27.55 43.11,21.19 38.22,23.21 51.88,33.12 65.54,23.21 60.65,21.19 		"/>
	</g>
	<path class="st1" d="M41.24,50.47L18.49,33.78c-1.13-0.72-7.1-4.9-7.1-12.86c0-3.86,1.85-7.31,5.21-9.71
		c3.53-2.52,8.69-3.92,15.34-4.17l0.23,6.24c-9.24,0.35-14.54,3.13-14.54,7.65c0,4.98,4.15,7.56,4.19,7.58l0.14,0.08l0.13,0.09
		l22.84,16.76L41.24,50.47z"/>
	<path class="st1" d="M41.01,66.57l-0.23-6.24c9.24-0.35,14.54-3.13,14.54-7.65c0-4.98-4.15-7.56-4.19-7.58l-0.14-0.08l-0.13-0.09
		L28.01,28.17l3.69-5.03l22.75,16.69c1.13,0.72,7.1,4.9,7.1,12.86c0,3.86-1.85,7.31-5.21,9.71C52.82,64.92,47.66,66.32,41.01,66.57z
		"/>
	<g>
		<polygon class="st1" points="21.09,46.13 29.86,52.49 34.75,50.47 21.09,40.56 7.43,50.47 12.32,52.49 		"/>
	</g>
</g>
</svg>
