<?xml version="1.0" encoding="utf-8"?>
<!-- Generator: Adobe Illustrator 24.1.2, SVG Export Plug-In . SVG Version: 6.00 Build 0)  -->
<svg version="1.1" id="Calque_1" xmlns="http://www.w3.org/2000/svg" xmlns:xlink="http://www.w3.org/1999/xlink" x="0px" y="0px"
	 viewBox="0 0 95.3 73.9" style="enable-background:new 0 0 95.3 73.9;" xml:space="preserve">
<style type="text/css">
	.st0{fill:#FE5F55;}
</style>
<g>
	<g>
		<g>
			<g>
				<path class="st0" d="M36.1,71.3c-7-3.2-13.9-6.4-20.9-9.7c-3.3-1.5-6.6-3.1-9.9-4.6c-1-0.5-1.4-1.2-1.4-2.2
					c0-11.4,0-22.9,0-34.3c0-1.8,1.2-2.6,2.8-1.9c9.7,4.3,19.4,8.5,29.1,12.8c0.5,0.2,0.8,0.2,1.3,0c8.4-3.7,16.7-7.4,25.1-11
					c0.2-0.1,0.4-0.2,0.7-0.3c-0.4-0.2-0.7-0.3-1-0.5c-8.3-3.8-16.6-7.5-24.8-11.3c-0.4-0.2-0.7-0.2-1.2,0c-6.5,3-13,5.9-19.5,8.9
					c-0.4,0.2-0.8,0.3-1.2,0.4c-0.8,0.1-1.5-0.5-1.7-1.2c-0.3-0.8,0-1.6,0.7-2.1c0.4-0.2,0.8-0.4,1.2-0.6c6.6-3,13.3-6,19.9-9.1
					c0.8-0.4,1.5-0.3,2.2,0c10,4.6,20,9.1,30.1,13.6c1,0.5,1.4,1.1,1.4,2.2c0,11.4,0,22.8,0,34.2c0,1.1-0.4,1.8-1.5,2.3
					c-10,4.6-20,9.2-30,13.9c-0.2,0.1-0.5,0.2-0.7,0.3C36.7,71.3,36.4,71.3,36.1,71.3z M34.7,66.7c0-0.4,0-0.6,0-0.9
					c0-7.6,0-15.1,0-22.7c0-1.5,0.7-2.4,1.8-2.4c0.9,0,1.8,0.6,1.8,2.3c0,7.6,0,15.2,0,22.7c0,0.3,0,0.5,0,0.8
					c0.3-0.1,0.4-0.2,0.6-0.2c8.7-4,17.4-8,26.1-12c0.4-0.2,0.5-0.4,0.5-0.8c0-10,0-20,0-30c0-0.2,0-0.4,0-0.6
					c-0.3,0.1-0.5,0.2-0.8,0.3c-9,4-18,7.9-27,11.9c-0.8,0.4-1.6,0.4-2.4,0c-9-4-18-7.9-27-11.9c-0.3-0.1-0.5-0.2-0.8-0.3
					c0,0.2,0,0.4,0,0.5c0,10,0,20.1,0,30.1c0,0.5,0.2,0.6,0.6,0.8c8.7,4,17.3,8,26,12C34.3,66.4,34.5,66.5,34.7,66.7z"/>
			</g>
		</g>
	</g>
	<g>
		<g>
			<g>
				<polygon class="st0" points="80.3,24.5 73.3,24.5 73.3,20.6 80.3,20.6 80.3,13.6 84.2,13.6 84.2,20.6 91.1,20.6 91.1,24.5 
					84.2,24.5 84.2,31.4 80.3,31.4 				"/>
			</g>
		</g>
	</g>
</g>
</svg>
