<?xml version="1.0" encoding="utf-8"?>
<!-- Generator: Adobe Illustrator 24.1.2, SVG Export Plug-In . SVG Version: 6.00 Build 0)  -->
<svg version="1.1" id="Calque_1" xmlns="http://www.w3.org/2000/svg" xmlns:xlink="http://www.w3.org/1999/xlink" x="0px" y="0px"
	 viewBox="0 0 95.28 73.89" style="enable-background:new 0 0 95.28 73.89;" xml:space="preserve">
<style type="text/css">
	.st0{fill:#BDD5EA;}
</style>
<g>
	<g>
		<g>
			<path class="st0" d="M36.14,71.27c-6.97-3.22-13.93-6.44-20.9-9.67c-3.3-1.52-6.58-3.07-9.9-4.56c-1.01-0.45-1.44-1.15-1.43-2.24
				c0.01-11.43,0.01-22.87,0.01-34.3c0-1.8,1.19-2.57,2.82-1.86c9.72,4.27,19.43,8.53,29.14,12.81c0.46,0.2,0.82,0.2,1.28,0
				c8.36-3.69,16.72-7.36,25.08-11.03c0.2-0.09,0.39-0.18,0.67-0.32c-0.38-0.18-0.68-0.33-0.99-0.47
				c-8.28-3.76-16.56-7.51-24.83-11.28c-0.42-0.19-0.74-0.18-1.15,0c-6.49,2.96-12.98,5.91-19.48,8.85
				c-0.37,0.17-0.77,0.32-1.17,0.35c-0.8,0.07-1.51-0.45-1.74-1.2c-0.25-0.78,0.03-1.62,0.74-2.05c0.39-0.23,0.82-0.4,1.23-0.59
				c6.63-3.01,13.27-6.02,19.89-9.05c0.78-0.36,1.47-0.34,2.24,0.01c10.01,4.56,20.03,9.11,30.06,13.64
				c1.01,0.46,1.43,1.14,1.43,2.23c-0.01,11.39-0.02,22.78,0,34.17c0,1.14-0.44,1.85-1.5,2.33c-10.02,4.6-20.02,9.23-30.03,13.86
				c-0.23,0.11-0.47,0.22-0.7,0.34C36.67,71.27,36.41,71.27,36.14,71.27z M34.74,66.65c0-0.36,0-0.62,0-0.87c0-7.56,0-15.11,0-22.67
				c0-1.52,0.66-2.4,1.82-2.36c0.87,0.03,1.79,0.59,1.78,2.34c-0.04,7.58-0.02,15.16-0.01,22.74c0,0.25,0.02,0.49,0.04,0.8
				c0.25-0.1,0.42-0.16,0.57-0.23c8.71-4.02,17.41-8.05,26.12-12.05c0.41-0.19,0.51-0.41,0.51-0.84c-0.01-10-0.01-19.99-0.01-29.99
				c0-0.18-0.03-0.37-0.04-0.6c-0.3,0.13-0.54,0.22-0.77,0.33c-9,3.95-18,7.9-26.99,11.87c-0.85,0.37-1.58,0.38-2.43,0.01
				c-8.99-3.97-17.99-7.92-26.99-11.87c-0.25-0.11-0.51-0.21-0.8-0.34c-0.01,0.23-0.03,0.38-0.03,0.53c0,10.04,0,20.08-0.01,30.12
				c0,0.47,0.2,0.63,0.57,0.8c8.67,3.99,17.34,8,26,12C34.25,66.45,34.45,66.53,34.74,66.65z"/>
		</g>
	</g>
	<g>
		<g>
			<path class="st0" d="M80.25,24.52h-6.92v-3.92h6.92v-6.98h3.92v6.98h6.92v3.92h-6.92v6.89h-3.92V24.52z"/>
		</g>
	</g>
</g>
</svg>
