<?xml version="1.0" encoding="utf-8"?>
<!-- Generator: Adobe Illustrator 24.1.2, SVG Export Plug-In . SVG Version: 6.00 Build 0)  -->
<svg version="1.1" id="Calque_1" xmlns="http://www.w3.org/2000/svg" xmlns:xlink="http://www.w3.org/1999/xlink" x="0px" y="0px"
	 viewBox="0 0 31.28 31.89" style="enable-background:new 0 0 31.28 31.89;" xml:space="preserve">
<style type="text/css">
	.st0{fill:#FE5F55;}
</style>
<g>
	<path class="st0" d="M19.38,30.23h-7.88l-0.64-2.95c-0.11-0.04-0.22-0.09-0.33-0.14l-2.49,1.6l-5.57-5.58l1.63-2.53
		c-0.05-0.11-0.09-0.22-0.13-0.33l-2.89-0.63V11.8l2.95-0.64c0.04-0.11,0.09-0.22,0.14-0.33l-1.6-2.49l5.57-5.57l2.54,1.63
		c0.11-0.05,0.22-0.09,0.33-0.13l0.63-2.89h7.88l0.64,2.95c0.11,0.04,0.22,0.09,0.33,0.14l2.49-1.6l5.57,5.58l-1.63,2.53
		c0.05,0.11,0.09,0.22,0.13,0.33l2.89,0.63v7.88l-2.95,0.64c-0.04,0.11-0.09,0.22-0.14,0.33l1.6,2.49l-5.57,5.57l-2.54-1.63
		c-0.11,0.05-0.22,0.09-0.33,0.13L19.38,30.23z M13.11,28.23h4.66l0.52-2.41l0.54-0.18c0.41-0.14,0.8-0.3,1.16-0.47l0.5-0.24
		l2.11,1.36l3.29-3.29l-1.33-2.07l0.25-0.51c0.18-0.37,0.35-0.76,0.49-1.16l0.19-0.53l2.45-0.53v-4.66l-2.41-0.52l-0.18-0.54
		c-0.14-0.42-0.3-0.8-0.47-1.17l-0.24-0.5l1.36-2.11l-3.29-3.29l-2.07,1.33L20.11,6.5c-0.38-0.19-0.77-0.35-1.16-0.49l-0.53-0.19
		L17.9,3.38h-4.66l-0.52,2.41l-0.54,0.18c-0.41,0.14-0.8,0.3-1.16,0.47l-0.5,0.24L8.41,5.33L5.12,8.62l1.33,2.07L6.2,11.2
		c-0.19,0.38-0.35,0.76-0.49,1.16l-0.19,0.53l-2.45,0.53v4.66l2.41,0.52l0.18,0.54c0.14,0.41,0.3,0.8,0.47,1.16l0.24,0.5L5.02,22.9
		l3.29,3.29l2.07-1.33l0.51,0.25c0.38,0.19,0.76,0.35,1.16,0.49l0.53,0.19L13.11,28.23z M15.5,23.42c-4.2,0-7.61-3.41-7.61-7.61
		c0-4.2,3.41-7.61,7.61-7.61c4.2,0,7.61,3.41,7.61,7.61C23.12,20,19.7,23.42,15.5,23.42z M15.5,10.19c-3.09,0-5.61,2.52-5.61,5.61
		s2.52,5.61,5.61,5.61s5.61-2.52,5.61-5.61S18.6,10.19,15.5,10.19z"/>
</g>
</svg>
