<?xml version="1.0" encoding="utf-8"?>
<!-- Generator: Adobe Illustrator 24.1.2, SVG Export Plug-In . SVG Version: 6.00 Build 0)  -->
<svg version="1.1" id="Calque_1" xmlns="http://www.w3.org/2000/svg" xmlns:xlink="http://www.w3.org/1999/xlink" x="0px" y="0px"
	 viewBox="0 0 45.28 45.89" style="enable-background:new 0 0 45.28 45.89;" xml:space="preserve">
<style type="text/css">
	.st0{fill:#FE5F55;}
	.st1{fill:#FFFFFF;}
</style>
<g>
	<g>
		<path class="st0" d="M37.36,2.32H7.64c-3.11,0-5.63,2.52-5.63,5.63v29.72c0,3.11,2.52,5.63,5.63,5.63h29.72
			c3.11,0,5.63-2.52,5.63-5.63V7.95C42.99,4.84,40.47,2.32,37.36,2.32L37.36,2.32z"/>
	</g>
	<g>
		<g>
			<path class="st1" d="M7.38,30.14c0.11-0.16,0.2-0.36,0.35-0.48c0.56-0.49,1.49-0.39,1.84,0.3c0.1,0.21,0.16,0.46,0.16,0.69
				c0.02,0.99,0.01,1.98,0.01,2.97c0,0.11,0,0.21,0,0.33c8.47,0,16.92,0,25.42,0c0-0.09,0-0.2,0-0.3c0-1-0.01-2,0-3
				c0-0.36,0.09-0.69,0.36-0.97c0.48-0.5,1.67-0.42,1.93,0.44c0.01,0.03,0.04,0.06,0.06,0.09c0,1.77,0,3.53,0,5.3
				c-0.17,0.38-0.43,0.67-0.82,0.82c-9.49,0-18.99,0-28.48,0c-0.38-0.17-0.67-0.43-0.82-0.82C7.38,33.71,7.38,31.93,7.38,30.14z"/>
		</g>
		<g>
			<path class="st1" d="M19.5,21.09c0.05-0.74,0.09-1.42,0.13-2.09c0.09-1.8,0.17-3.61,0.27-5.41c0.03-0.56,0.08-1.12,0.19-1.67
				c0.05-0.24,0.22-0.54,0.42-0.64c1.15-0.57,2.34-0.64,3.54-0.14c0.7,0.29,0.68,0.93,0.74,1.52c0.13,1.37,0.25,2.75,0.35,4.13
				c0.05,0.65,0.06,1.3,0.09,1.95c0.05,0.77,0.1,1.55,0.16,2.36c0.97,0,1.9,0.01,2.83,0c0.43-0.01,0.79,0.13,1,0.48
				c0.23,0.38,0.12,0.77-0.15,1.11c-0.83,1.04-1.62,2.12-2.5,3.12c-1.02,1.16-2.11,2.27-3.2,3.37c-0.23,0.23-0.59,0.4-0.92,0.46
				c-0.22,0.04-0.53-0.12-0.71-0.28c-0.79-0.74-1.55-1.52-2.31-2.29c-1.34-1.37-2.54-2.85-3.64-4.42c-0.23-0.33-0.27-0.69-0.13-1.02
				c0.16-0.37,0.53-0.54,0.95-0.54C17.57,21.09,18.53,21.09,19.5,21.09z"/>
		</g>
	</g>
</g>
</svg>
