<?xml version="1.0" encoding="utf-8"?>
<!-- Generator: Adobe Illustrator 24.1.2, SVG Export Plug-In . SVG Version: 6.00 Build 0)  -->
<svg version="1.1" id="Calque_1" xmlns="http://www.w3.org/2000/svg" xmlns:xlink="http://www.w3.org/1999/xlink" x="0px" y="0px"
	 viewBox="0 0 45.3 45.9" style="enable-background:new 0 0 45.3 45.9;" xml:space="preserve">
<style type="text/css">
	.st0{fill:#FFFFFF;}
	.st1{fill:#495867;}
</style>
<g>
	<g>
		<g>
			<path class="st0" d="M37.4,2.3H7.6C4.5,2.3,2,4.8,2,7.9v29.7c0,3.1,2.5,5.6,5.6,5.6h29.7c3.1,0,5.6-2.5,5.6-5.6V7.9
				C43,4.8,40.5,2.3,37.4,2.3L37.4,2.3z"/>
		</g>
	</g>
	<g>
		<g>
			<path class="st1" d="M7.4,30.1c0.1-0.2,0.2-0.4,0.3-0.5c0.6-0.5,1.5-0.4,1.8,0.3c0.1,0.2,0.2,0.5,0.2,0.7c0,1,0,2,0,3
				c0,0.1,0,0.2,0,0.3c8.5,0,16.9,0,25.4,0c0-0.1,0-0.2,0-0.3c0-1,0-2,0-3c0-0.4,0.1-0.7,0.4-1c0.5-0.5,1.7-0.4,1.9,0.4
				c0,0,0,0.1,0.1,0.1c0,1.8,0,3.5,0,5.3c-0.2,0.4-0.4,0.7-0.8,0.8c-9.5,0-19,0-28.5,0c-0.4-0.2-0.7-0.4-0.8-0.8
				C7.4,33.7,7.4,31.9,7.4,30.1z"/>
		</g>
		<g>
			<path class="st1" d="M19.5,21.1c0-0.7,0.1-1.4,0.1-2.1c0.1-1.8,0.2-3.6,0.3-5.4c0-0.6,0.1-1.1,0.2-1.7c0-0.2,0.2-0.5,0.4-0.6
				c1.1-0.6,2.3-0.6,3.5-0.1c0.7,0.3,0.7,0.9,0.7,1.5c0.1,1.4,0.3,2.8,0.4,4.1c0,0.6,0.1,1.3,0.1,2c0,0.8,0.1,1.5,0.2,2.4
				c1,0,1.9,0,2.8,0c0.4,0,0.8,0.1,1,0.5c0.2,0.4,0.1,0.8-0.1,1.1c-0.8,1-1.6,2.1-2.5,3.1c-1,1.2-2.1,2.3-3.2,3.4
				c-0.2,0.2-0.6,0.4-0.9,0.5c-0.2,0-0.5-0.1-0.7-0.3c-0.8-0.7-1.5-1.5-2.3-2.3c-1.3-1.4-2.5-2.9-3.6-4.4c-0.2-0.3-0.3-0.7-0.1-1
				c0.2-0.4,0.5-0.5,1-0.5C17.6,21.1,18.5,21.1,19.5,21.1z"/>
		</g>
	</g>
</g>
</svg>
