<?xml version="1.0" encoding="utf-8"?>
<!-- Generator: Adobe Illustrator 24.1.2, SVG Export Plug-In . SVG Version: 6.00 Build 0)  -->
<svg version="1.1" id="Calque_1" xmlns="http://www.w3.org/2000/svg" xmlns:xlink="http://www.w3.org/1999/xlink" x="0px" y="0px"
	 viewBox="0 0 45.28 45.89" style="enable-background:new 0 0 45.28 45.89;" xml:space="preserve">
<style type="text/css">
	.st0{fill:#FE5F55;}
	.st1{fill:#FFFFFF;}
</style>
<g>
	<g>
		<path class="st0" d="M37.58,2.51H7.86c-3.11,0-5.63,2.52-5.63,5.63v29.72c0,3.11,2.52,5.63,5.63,5.63h29.72
			c3.11,0,5.63-2.52,5.63-5.63V8.14C43.21,5.03,40.69,2.51,37.58,2.51L37.58,2.51z"/>
	</g>
	<g>
		<g>
			<path class="st1" d="M15.54,37.6c-0.09-0.03-0.18-0.06-0.26-0.1c-0.36-0.18-0.55-0.47-0.61-0.86c-0.24-1.6-0.48-3.19-0.72-4.79
				c-0.26-1.71-0.51-3.42-0.77-5.13c-0.24-1.58-0.48-3.16-0.71-4.74c-0.25-1.64-0.49-3.28-0.73-4.92c-0.03-0.19-0.06-0.39-0.09-0.6
				c-0.25,0-0.5,0-0.75,0c-0.21,0-0.42,0.01-0.62-0.02c-0.56-0.09-0.94-0.58-0.89-1.13c0.05-0.55,0.51-0.97,1.07-0.97
				c2.56,0,5.12,0,7.69,0c3.42,0,6.85,0,10.27,0c1.75,0,3.5,0,5.26,0c0.61,0,1.09,0.46,1.09,1.06c0,0.59-0.47,1.05-1.09,1.06
				c-0.39,0-0.77,0-1.17,0c-0.06,0.41-0.12,0.82-0.18,1.23c-0.16,1.04-0.31,2.08-0.47,3.12c-0.17,1.11-0.33,2.22-0.5,3.33
				c-0.17,1.11-0.34,2.23-0.5,3.34c-0.17,1.11-0.33,2.22-0.5,3.33c-0.18,1.23-0.37,2.47-0.56,3.7c-0.1,0.7-0.22,1.39-0.31,2.09
				c-0.07,0.53-0.34,0.87-0.86,1c-0.01,0-0.01,0.01-0.02,0.02C24.24,37.6,19.89,37.6,15.54,37.6z M23.18,35.48
				c0.32-6.35,0.63-12.68,0.95-19.01c-1.38,0-2.74,0-4.12,0c0.32,6.34,0.63,12.68,0.95,19.01C21.71,35.48,22.44,35.48,23.18,35.48z
				 M18.84,35.48c-0.32-6.35-0.63-12.68-0.95-19.01c-1.37,0-2.74,0-4.11,0c0.95,6.35,1.9,12.68,2.85,19.01
				C17.37,35.48,18.1,35.48,18.84,35.48z M30.36,16.46c-1.38,0-2.74,0-4.11,0c-0.32,6.34-0.63,12.68-0.95,19.01
				c0.75,0,1.48,0,2.21,0C28.45,29.14,29.4,22.8,30.36,16.46z"/>
		</g>
		<g>
			<path class="st1" d="M23.37,8c0.19,0.05,0.39,0.09,0.58,0.17c0.83,0.37,1.25,1.03,1.31,1.95c0.05,0,0.1,0,0.15,0
				c2.05,0,4.11,0,6.16,0c0.51,0,0.93,0.33,1.04,0.8c0.11,0.48-0.1,0.97-0.53,1.19c-0.16,0.08-0.35,0.13-0.52,0.13
				c-2.05,0.01-4.11,0.01-6.16,0.01c-3.83,0-7.66,0-11.49,0c-0.43,0-0.87,0-1.3,0c-0.64,0-1.12-0.46-1.11-1.06
				c0-0.6,0.48-1.05,1.11-1.05c2.05,0,4.1,0,6.15,0c0.04,0,0.09,0,0.13,0c0.03-0.2,0.04-0.38,0.1-0.56
				c0.26-0.85,0.83-1.36,1.71-1.53c0.03-0.01,0.06-0.02,0.09-0.03C21.64,8,22.5,8,23.37,8z"/>
		</g>
	</g>
</g>
</svg>
