<?xml version="1.0" encoding="utf-8"?>
<!-- Generator: Adobe Illustrator 24.1.2, SVG Export Plug-In . SVG Version: 6.00 Build 0)  -->
<svg version="1.1" id="Calque_1" xmlns="http://www.w3.org/2000/svg" xmlns:xlink="http://www.w3.org/1999/xlink" x="0px" y="0px"
	 viewBox="0 0 45.3 45.9" style="enable-background:new 0 0 45.3 45.9;" xml:space="preserve">
<style type="text/css">
	.st0{fill:#FFFFFF;}
	.st1{fill:#495867;}
</style>
<g>
	<g>
		<g>
			<path class="st0" d="M37.6,2.5H7.9C4.8,2.5,2.2,5,2.2,8.1v29.7c0,3.1,2.5,5.6,5.6,5.6h29.7c3.1,0,5.6-2.5,5.6-5.6V8.1
				C43.2,5,40.7,2.5,37.6,2.5L37.6,2.5z"/>
		</g>
	</g>
	<g>
		<g>
			<path class="st1" d="M15.5,37.6c-0.1,0-0.2-0.1-0.3-0.1c-0.4-0.2-0.6-0.5-0.6-0.9c-0.2-1.6-0.5-3.2-0.7-4.8
				c-0.3-1.7-0.5-3.4-0.8-5.1c-0.2-1.6-0.5-3.2-0.7-4.7c-0.3-1.6-0.5-3.3-0.7-4.9c0-0.2-0.1-0.4-0.1-0.6c-0.3,0-0.5,0-0.8,0
				c-0.2,0-0.4,0-0.6,0c-0.6-0.1-0.9-0.6-0.9-1.1c0.1-0.6,0.5-1,1.1-1c2.6,0,5.1,0,7.7,0c3.4,0,6.9,0,10.3,0c1.8,0,3.5,0,5.3,0
				c0.6,0,1.1,0.5,1.1,1.1c0,0.6-0.5,1-1.1,1.1c-0.4,0-0.8,0-1.2,0c-0.1,0.4-0.1,0.8-0.2,1.2c-0.2,1-0.3,2.1-0.5,3.1
				c-0.2,1.1-0.3,2.2-0.5,3.3s-0.3,2.2-0.5,3.3c-0.2,1.1-0.3,2.2-0.5,3.3c-0.2,1.2-0.4,2.5-0.6,3.7c-0.1,0.7-0.2,1.4-0.3,2.1
				c-0.1,0.5-0.3,0.9-0.9,1c0,0,0,0,0,0C24.2,37.6,19.9,37.6,15.5,37.6z M23.2,35.5c0.3-6.4,0.6-12.7,1-19c-1.4,0-2.7,0-4.1,0
				c0.3,6.3,0.6,12.7,1,19C21.7,35.5,22.4,35.5,23.2,35.5z M18.8,35.5c-0.3-6.4-0.6-12.7-1-19c-1.4,0-2.7,0-4.1,0
				c0.9,6.4,1.9,12.7,2.9,19C17.4,35.5,18.1,35.5,18.8,35.5z M30.4,16.5c-1.4,0-2.7,0-4.1,0c-0.3,6.3-0.6,12.7-1,19
				c0.8,0,1.5,0,2.2,0C28.5,29.1,29.4,22.8,30.4,16.5z"/>
		</g>
		<g>
			<path class="st1" d="M23.4,8c0.2,0.1,0.4,0.1,0.6,0.2c0.8,0.4,1.3,1,1.3,1.9c0,0,0.1,0,0.1,0c2,0,4.1,0,6.2,0
				c0.5,0,0.9,0.3,1,0.8c0.1,0.5-0.1,1-0.5,1.2c-0.2,0.1-0.4,0.1-0.5,0.1c-2,0-4.1,0-6.2,0c-3.8,0-7.7,0-11.5,0c-0.4,0-0.9,0-1.3,0
				c-0.6,0-1.1-0.5-1.1-1.1c0-0.6,0.5-1.1,1.1-1.1c2.1,0,4.1,0,6.2,0c0,0,0.1,0,0.1,0c0-0.2,0-0.4,0.1-0.6c0.3-0.9,0.8-1.4,1.7-1.5
				c0,0,0.1,0,0.1,0C21.6,8,22.5,8,23.4,8z"/>
		</g>
	</g>
</g>
</svg>
