<?xml version="1.0" encoding="utf-8"?>
<!-- Generator: Adobe Illustrator 24.1.2, SVG Export Plug-In . SVG Version: 6.00 Build 0)  -->
<svg version="1.1" id="Calque_1" xmlns="http://www.w3.org/2000/svg" xmlns:xlink="http://www.w3.org/1999/xlink" x="0px" y="0px"
	 viewBox="0 0 45.28 45.89" style="enable-background:new 0 0 45.28 45.89;" xml:space="preserve">
<style type="text/css">
	.st0{fill:#495867;}
	.st1{fill:#FFFFFF;}
</style>
<g>
	<g>
		<path class="st0" d="M37.5,2.51H7.78c-3.11,0-5.63,2.52-5.63,5.63v29.72c0,3.11,2.52,5.63,5.63,5.63H37.5
			c3.11,0,5.63-2.52,5.63-5.63V8.14C43.13,5.03,40.61,2.51,37.5,2.51L37.5,2.51z"/>
	</g>
	<g>
		<g>
			<polygon class="st1" points="19.18,30.81 19.17,30.8 21.84,29.97 36.69,15.12 35.35,13.78 20.83,28.3 17.57,29.3 13.3,25.29 
				14.36,21.83 28.88,7.32 27.54,5.97 12.69,20.82 9.54,31.05 8.55,34.1 			"/>
		</g>
		<g>
			
				<rect x="12.91" y="15.46" transform="matrix(0.7071 -0.7071 0.7071 0.7071 -4.7826 21.2762)" class="st1" width="20.76" height="1.9"/>
		</g>
		<g>
			<rect x="8.49" y="35.02" class="st1" width="23.61" height="1.9"/>
		</g>
	</g>
</g>
</svg>
