<?xml version="1.0" encoding="utf-8"?>
<!-- Generator: Adobe Illustrator 24.1.2, SVG Export Plug-In . SVG Version: 6.00 Build 0)  -->
<svg version="1.1" id="Calque_1" xmlns="http://www.w3.org/2000/svg" xmlns:xlink="http://www.w3.org/1999/xlink" x="0px" y="0px"
	 viewBox="0 0 45.3 45.9" style="enable-background:new 0 0 45.3 45.9;" xml:space="preserve">
<style type="text/css">
	.st0{fill:#FFFFFF;}
	.st1{fill:#495867;}
</style>
<g>
	<g>
		<path class="st0" d="M37.5,2.5H7.8C4.7,2.5,2.2,5,2.2,8.1v29.7c0,3.1,2.5,5.6,5.6,5.6h29.7c3.1,0,5.6-2.5,5.6-5.6V8.1
			C43.1,5,40.6,2.5,37.5,2.5L37.5,2.5z"/>
	</g>
	<g>
		<g>
			<polygon class="st1" points="19.2,30.8 19.2,30.8 21.8,30 36.7,15.1 35.3,13.8 20.8,28.3 17.6,29.3 13.3,25.3 14.4,21.8 
				28.9,7.3 27.5,6 12.7,20.8 9.5,31 8.6,34.1 			"/>
		</g>
		<g>
			
				<rect x="12.9" y="15.5" transform="matrix(0.7071 -0.7071 0.7071 0.7071 -4.7833 21.2748)" class="st1" width="20.8" height="1.9"/>
		</g>
		<g>
			<rect x="8.5" y="35" class="st1" width="23.6" height="1.9"/>
		</g>
	</g>
</g>
</svg>
