<?xml version="1.0" encoding="utf-8"?>
<!-- Generator: Adobe Illustrator 24.1.2, SVG Export Plug-In . SVG Version: 6.00 Build 0)  -->
<svg version="1.1" id="Calque_1" xmlns="http://www.w3.org/2000/svg" xmlns:xlink="http://www.w3.org/1999/xlink" x="0px" y="0px"
	 viewBox="0 0 45.3 45.9" style="enable-background:new 0 0 45.3 45.9;" xml:space="preserve">
<style type="text/css">
	.st0{fill:#FFFFFF;}
	.st1{fill:#495867;}
</style>
<g>
	<g>
		<g>
			<g>
				<path class="st0" d="M37.5,2.5H7.8C4.7,2.5,2.2,5,2.2,8.1v29.7c0,3.1,2.5,5.6,5.6,5.6h29.7c3.1,0,5.6-2.5,5.6-5.6V8.1
					C43.1,5,40.6,2.5,37.5,2.5L37.5,2.5z"/>
			</g>
		</g>
	</g>
	<g>
		<path class="st1" d="M35.3,18.9c0,5.2,0,10.4,0,15.6c-0.3,1-1,1.3-1.9,1.3c-7,0-14.1,0-21.1,0c-1.1,0-1.7-0.6-1.7-1.7
			c0-1.7,0-3.4,0-5.1c0-5.4,0-10.8,0-16.2c0-0.3,0.1-0.6,0.2-0.9c0.2-0.5,0.6-0.7,1.1-0.9c5.2,0,10.4,0,15.5,0c0,0,0.1,0,0.1,0
			c0.9,0.2,1.7,0.6,2.3,1.2c1.4,1.4,2.8,2.8,4.2,4.2c0.3,0.3,0.6,0.7,0.8,1.1C35.1,18,35.2,18.5,35.3,18.9z M14.8,33.6
			c0-0.1,0-0.2,0-0.3c0-2.1,0-4.1,0-6.2c0-1,0.6-1.7,1.6-1.7c4.4,0,8.8,0,13.3,0c0.3,0,0.5,0,0.7,0.2c0.6,0.3,0.9,0.9,0.9,1.5
			c0,2.1,0,4.1,0,6.2c0,0.1,0,0.2,0,0.3c0.7,0,1.4,0,2,0c0-0.1,0-0.1,0-0.1c0-4.7,0-9.5,0-14.2c0-0.5-0.2-0.9-0.5-1.3
			c-1.5-1.5-3-3-4.5-4.5c-0.3-0.3-0.7-0.5-1.2-0.5c0,0.1,0,0.2,0,0.3c0,2.1,0,4.2,0,6.2c0,1-0.6,1.7-1.6,1.7c-3,0-6.1,0-9.1,0
			c-0.2,0-0.5,0-0.7-0.1c-0.6-0.3-0.9-0.8-0.9-1.5c0-2.1,0-4.2,0-6.3c0-0.1,0-0.2,0-0.3c-0.7,0-1.4,0-2,0c0,6.9,0,13.7,0,20.6
			C13.4,33.6,14.1,33.6,14.8,33.6z M16.8,33.6c4.1,0,8.2,0,12.3,0c0-2.1,0-4.1,0-6.1c-4.1,0-8.2,0-12.3,0
			C16.8,29.5,16.8,31.6,16.8,33.6z M20.9,16.1c0,0.8,0,1.6,0,2.4c0,0.5,0.2,0.7,0.7,0.7c0.9,0,1.9,0,2.8,0c0.5,0,0.7-0.2,0.7-0.7
			c0-1.6,0-3.2,0-4.8c0-0.5-0.2-0.7-0.7-0.7c-0.9,0-1.8,0-2.8,0c-0.5,0-0.7,0.2-0.7,0.7C20.9,14.6,20.9,15.4,20.9,16.1z"/>
	</g>
</g>
</svg>
