<?xml version="1.0" encoding="utf-8"?>
<!-- Generator: Adobe Illustrator 24.1.2, SVG Export Plug-In . SVG Version: 6.00 Build 0)  -->
<svg version="1.1" id="Calque_1" xmlns="http://www.w3.org/2000/svg" xmlns:xlink="http://www.w3.org/1999/xlink" x="0px" y="0px"
	 viewBox="0 0 45.28 45.89" style="enable-background:new 0 0 45.28 45.89;" xml:space="preserve">
<style type="text/css">
	.st0{fill:#FFFFFF;}
</style>
<g>
	<g>
		<g>
			<path class="st0" d="M37.5,3.51c2.55,0,4.63,2.08,4.63,4.63v29.72c0,2.55-2.08,4.63-4.63,4.63H7.78c-2.55,0-4.63-2.08-4.63-4.63
				V8.14c0-2.55,2.08-4.63,4.63-4.63H37.5 M37.5,2.51H7.78c-3.11,0-5.63,2.52-5.63,5.63v29.72c0,3.11,2.52,5.63,5.63,5.63H37.5
				c3.11,0,5.63-2.52,5.63-5.63V8.14C43.13,5.03,40.61,2.51,37.5,2.51L37.5,2.51z"/>
		</g>
	</g>
	<g>
		<path class="st0" d="M35.35,18.87c0,5.18,0,10.37,0,15.55c-0.25,0.99-0.97,1.32-1.91,1.31c-7.03-0.02-14.06-0.01-21.09-0.01
			c-1.1,0-1.72-0.62-1.72-1.72c0-1.71,0-3.41,0-5.12c0-5.39,0-10.78,0.01-16.17c0-0.29,0.06-0.6,0.17-0.86
			c0.2-0.49,0.63-0.73,1.13-0.86c5.18,0,10.37,0,15.55,0c0.04,0.02,0.07,0.04,0.11,0.04c0.9,0.18,1.68,0.56,2.33,1.21
			c1.4,1.42,2.83,2.81,4.22,4.24c0.32,0.33,0.58,0.73,0.79,1.14C35.12,18.01,35.22,18.45,35.35,18.87z M14.75,33.64
			c0-0.13,0-0.22,0-0.32c0-2.08,0-4.15,0-6.23c0-1.02,0.62-1.67,1.62-1.67c4.42-0.01,8.83,0,13.25,0c0.25,0,0.52,0.05,0.74,0.16
			c0.64,0.3,0.88,0.85,0.88,1.53c0,2.08,0,4.15,0,6.23c0,0.09,0,0.19,0,0.29c0.7,0,1.37,0,2.04,0c0-0.06,0.01-0.1,0.01-0.14
			c0-4.73,0-9.46,0-14.19c0-0.48-0.18-0.93-0.51-1.27c-1.47-1.5-2.96-2.98-4.45-4.46c-0.32-0.32-0.74-0.46-1.21-0.51
			c0,0.13,0,0.22,0,0.32c0,2.08,0,4.17,0,6.25c0,1.02-0.61,1.66-1.6,1.66c-3.05,0.01-6.1,0.01-9.15,0c-0.24,0-0.5-0.05-0.72-0.15
			c-0.64-0.3-0.89-0.84-0.89-1.53c0-2.08,0-4.17,0-6.25c0-0.09,0-0.19,0-0.28c-0.7,0-1.37,0-2.04,0c0,6.86,0,13.71,0,20.56
			C13.39,33.64,14.06,33.64,14.75,33.64z M16.82,33.64c4.13,0,8.23,0,12.34,0c0-2.06,0-4.1,0-6.14c-4.12,0-8.23,0-12.34,0
			C16.82,29.55,16.82,31.58,16.82,33.64z M20.93,16.15c0,0.8,0,1.61,0,2.41c0,0.48,0.19,0.68,0.67,0.68c0.93,0,1.85,0,2.78,0
			c0.49,0,0.68-0.19,0.68-0.69c0-1.6,0-3.2,0-4.8c0-0.5-0.18-0.68-0.68-0.69c-0.92,0-1.83,0-2.75,0c-0.52,0-0.69,0.18-0.69,0.7
			C20.93,14.55,20.93,15.35,20.93,16.15z"/>
	</g>
</g>
</svg>
