<?xml version="1.0" encoding="utf-8"?>
<!-- Generator: Adobe Illustrator 24.1.2, SVG Export Plug-In . SVG Version: 6.00 Build 0)  -->
<svg version="1.1" id="Calque_1" xmlns="http://www.w3.org/2000/svg" xmlns:xlink="http://www.w3.org/1999/xlink" x="0px" y="0px"
	 viewBox="0 0 45.3 45.9" style="enable-background:new 0 0 45.3 45.9;" xml:space="preserve">
<style type="text/css">
	.st0{fill:#FFFFFF;}
	.st1{fill:#495867;}
</style>
<g>
	<path class="st0" d="M37.5,2.5H7.8C4.7,2.5,2.2,5,2.2,8.1v29.7c0,3.1,2.5,5.6,5.6,5.6h29.7c3.1,0,5.6-2.5,5.6-5.6V8.1
		C43.1,5,40.6,2.5,37.5,2.5L37.5,2.5z"/>
	<g>
		<g>
			<path class="st1" d="M23,32.1c-6.6,0-12.9-3.3-16.7-8.7l-0.5-0.8l0.5-0.8c3.8-5.5,10.1-8.7,16.7-8.7s12.9,3.3,16.7,8.7l0.5,0.8
				l-0.5,0.8C35.8,28.9,29.6,32.1,23,32.1z M9,22.6c3.4,4.3,8.5,6.8,14,6.8s10.6-2.5,14-6.8c-3.3-4.3-8.5-6.8-14-6.8
				S12.3,18.3,9,22.6z"/>
		</g>
		<g>
			<circle class="st1" cx="23.1" cy="22.6" r="4.6"/>
		</g>
	</g>
</g>
</svg>
