<?xml version="1.0" encoding="utf-8"?>
<!-- Generator: Adobe Illustrator 24.1.2, SVG Export Plug-In . SVG Version: 6.00 Build 0)  -->
<svg version="1.1" id="Calque_1" xmlns="http://www.w3.org/2000/svg" xmlns:xlink="http://www.w3.org/1999/xlink" x="0px" y="0px"
	 viewBox="0 0 45.28 45.89" style="enable-background:new 0 0 45.28 45.89;" xml:space="preserve">
<style type="text/css">
	.st0{fill:#FFFFFF;}
</style>
<g>
	<path class="st0" d="M37.5,3.47c2.55,0,4.63,2.08,4.63,4.63v29.72c0,2.55-2.08,4.63-4.63,4.63H7.78c-2.55,0-4.63-2.08-4.63-4.63
		V8.09c0-2.55,2.08-4.63,4.63-4.63H37.5 M37.5,2.47H7.78c-3.11,0-5.63,2.52-5.63,5.63v29.72c0,3.11,2.52,5.63,5.63,5.63H37.5
		c3.11,0,5.63-2.52,5.63-5.63V8.09C43.13,4.99,40.61,2.47,37.5,2.47L37.5,2.47z"/>
	<g>
		<g>
			<path class="st0" d="M22.96,32.1c-6.65,0-12.89-3.26-16.71-8.71l-0.53-0.76l0.53-0.76c3.81-5.46,10.06-8.71,16.71-8.71
				s12.89,3.26,16.71,8.71l0.53,0.76l-0.53,0.76C35.85,28.85,29.61,32.1,22.96,32.1z M8.99,22.63c3.35,4.29,8.5,6.82,13.97,6.82
				s10.62-2.53,13.97-6.82c-3.35-4.29-8.5-6.82-13.97-6.82S12.34,18.34,8.99,22.63z"/>
		</g>
		<g>
			<circle class="st0" cx="23.06" cy="22.63" r="4.55"/>
		</g>
	</g>
</g>
</svg>
