<?xml version="1.0" encoding="utf-8"?>
<!-- Generator: Adobe Illustrator 24.1.2, SVG Export Plug-In . SVG Version: 6.00 Build 0)  -->
<svg version="1.1" id="Calque_1" xmlns="http://www.w3.org/2000/svg" xmlns:xlink="http://www.w3.org/1999/xlink" x="0px" y="0px"
	 viewBox="0 0 46.28 43.89" style="enable-background:new 0 0 46.28 43.89;" xml:space="preserve">
<style type="text/css">
	.st0{fill:#495867;}
</style>
<g>
	<g>
		<path class="st0" d="M3.57,32.84c0.15-0.22,0.27-0.47,0.46-0.64C4.78,31.56,6,31.69,6.46,32.6c0.14,0.27,0.21,0.61,0.21,0.91
			c0.02,1.31,0.01,2.62,0.01,3.93c0,0.14,0,0.28,0,0.44c11.21,0,22.4,0,33.64,0c0-0.13,0-0.26,0-0.4c0-1.32-0.01-2.65,0-3.97
			c0-0.48,0.12-0.91,0.48-1.29c0.64-0.66,2.21-0.55,2.56,0.58c0.01,0.04,0.05,0.08,0.08,0.12c0,2.34,0,4.67,0,7.01
			c-0.22,0.51-0.57,0.89-1.09,1.09c-12.56,0-25.13,0-37.69,0c-0.51-0.22-0.89-0.57-1.09-1.09C3.57,37.57,3.57,35.21,3.57,32.84z"/>
	</g>
	<g>
		<path class="st0" d="M20.9,11.89c0.04-0.66,0.08-1.26,0.11-1.87c0.08-1.61,0.15-3.21,0.24-4.82c0.03-0.5,0.07-1,0.17-1.48
			c0.04-0.21,0.19-0.48,0.37-0.57c1.02-0.51,2.08-0.57,3.15-0.13c0.62,0.25,0.61,0.83,0.66,1.35c0.12,1.22,0.22,2.45,0.31,3.67
			c0.04,0.58,0.05,1.16,0.08,1.74c0.04,0.69,0.09,1.38,0.14,2.1c0.87,0,1.69,0.01,2.52,0c0.38-0.01,0.7,0.12,0.89,0.43
			c0.2,0.34,0.11,0.69-0.13,0.99c-0.74,0.93-1.44,1.89-2.22,2.78c-0.91,1.04-1.88,2.02-2.85,3c-0.21,0.21-0.53,0.36-0.82,0.41
			c-0.19,0.03-0.48-0.1-0.63-0.25c-0.7-0.66-1.38-1.35-2.05-2.04c-1.19-1.22-2.26-2.54-3.24-3.93c-0.21-0.3-0.24-0.62-0.11-0.91
			c0.14-0.33,0.47-0.48,0.84-0.48C19.18,11.89,20.03,11.89,20.9,11.89z"/>
	</g>
	<g>
		<path class="st0" d="M30.06,24.52c4-6.34,9.81-5.41,13.16-3.49c-0.51-0.06-1.04-0.16-1.58-0.17c-1.18-0.03-2.21,0.41-3.15,1.09
			c-1.74,1.25-2.79,3.02-3.69,4.9c-0.01,0.02,0,0.05,0,0.11c0.72,0.38,1.44,0.76,2.17,1.14c0.34,0.18,0.64,0.39,0.63,0.83
			c-0.01,0.43-0.29,0.63-0.62,0.8c-1.9,0.99-3.87,1.84-5.92,2.5c-0.58,0.19-1.15,0.4-1.73,0.58c-0.47,0.15-0.88-0.06-1.01-0.55
			c-0.4-1.52-0.8-3.04-1.15-4.57c-0.25-1.08-0.43-2.17-0.62-3.25c-0.07-0.39-0.03-0.8,0.32-1.05c0.32-0.23,0.68-0.13,1.02,0.04
			C28.61,23.79,29.34,24.16,30.06,24.52z"/>
	</g>
	<g>
		<path class="st0" d="M16.92,24.53c0.75-0.38,1.48-0.74,2.21-1.11c0.34-0.18,0.69-0.27,1.01-0.04c0.33,0.24,0.39,0.64,0.32,1.02
			c-0.37,1.89-0.75,3.78-1.16,5.67c-0.16,0.74-0.39,1.47-0.61,2.19c-0.15,0.49-0.54,0.71-1.01,0.54c-1.61-0.57-3.23-1.13-4.82-1.76
			c-0.95-0.38-1.86-0.87-2.79-1.31c-0.35-0.17-0.65-0.37-0.65-0.81c-0.01-0.44,0.29-0.65,0.63-0.83c0.72-0.37,1.44-0.76,2.22-1.16
			c-0.31-0.59-0.55-1.21-0.93-1.74c-0.61-0.88-1.23-1.77-1.98-2.53c-1.18-1.19-2.61-1.91-4.35-1.8c-0.41,0.03-0.82,0.14-1.23,0.21
			c1-1.09,5.18-1.79,7.31-1.2C13.68,20.58,15.52,22.27,16.92,24.53z"/>
	</g>
</g>
</svg>
