<?xml version="1.0" encoding="utf-8"?>
<!-- Generator: Adobe Illustrator 24.1.2, SVG Export Plug-In . SVG Version: 6.00 Build 0)  -->
<svg version="1.1" id="Calque_1" xmlns="http://www.w3.org/2000/svg" xmlns:xlink="http://www.w3.org/1999/xlink" x="0px" y="0px"
	 viewBox="0 0 35.28 35.89" style="enable-background:new 0 0 35.28 35.89;" xml:space="preserve">
<style type="text/css">
	.st0{fill:#FE5F55;}
	.st1{fill:#FFFFFF;}
</style>
<g>
	<circle class="st0" cx="17.5" cy="17.81" r="16.73"/>
	<g>
		<g>
			<path class="st1" d="M12.4,30.35c-0.07-0.03-0.15-0.05-0.22-0.08c-0.3-0.15-0.46-0.39-0.51-0.72c-0.2-1.33-0.4-2.66-0.6-3.99
				c-0.21-1.43-0.43-2.85-0.64-4.28c-0.2-1.32-0.4-2.64-0.6-3.95c-0.21-1.37-0.41-2.74-0.61-4.1c-0.02-0.16-0.05-0.32-0.08-0.5
				c-0.21,0-0.42,0-0.63,0c-0.17,0-0.35,0.01-0.51-0.02c-0.47-0.08-0.78-0.49-0.74-0.94c0.04-0.46,0.42-0.81,0.89-0.81
				c2.14,0,4.27,0,6.41,0c2.85,0,5.71,0,8.56,0c1.46,0,2.92,0,4.38,0c0.51,0,0.91,0.39,0.91,0.88c0,0.49-0.39,0.88-0.91,0.88
				c-0.32,0-0.65,0-0.98,0c-0.05,0.34-0.1,0.68-0.15,1.02c-0.13,0.87-0.26,1.73-0.39,2.6c-0.14,0.92-0.28,1.85-0.42,2.77
				c-0.14,0.93-0.28,1.86-0.42,2.79c-0.14,0.92-0.28,1.85-0.41,2.77c-0.15,1.03-0.31,2.06-0.46,3.08c-0.09,0.58-0.18,1.16-0.26,1.74
				c-0.06,0.44-0.28,0.72-0.72,0.83c-0.01,0-0.01,0.01-0.02,0.02C19.66,30.35,16.03,30.35,12.4,30.35z M18.77,28.58
				c0.26-5.29,0.53-10.57,0.79-15.85c-1.15,0-2.29,0-3.43,0c0.26,5.29,0.53,10.57,0.79,15.85C17.54,28.58,18.15,28.58,18.77,28.58z
				 M15.15,28.58c-0.26-5.29-0.53-10.57-0.79-15.85c-1.15,0-2.28,0-3.43,0c0.79,5.29,1.59,10.57,2.38,15.85
				C13.93,28.58,14.53,28.58,15.15,28.58z M24.75,12.73c-1.15,0-2.28,0-3.43,0c-0.26,5.29-0.53,10.57-0.79,15.85
				c0.63,0,1.23,0,1.84,0C23.17,23.3,23.96,18.02,24.75,12.73z"/>
		</g>
		<g>
			<path class="st1" d="M18.93,5.67c0.16,0.05,0.33,0.07,0.48,0.14c0.69,0.31,1.04,0.86,1.09,1.62c0.04,0,0.08,0,0.13,0
				c1.71,0,3.42,0,5.14,0c0.42,0,0.78,0.27,0.87,0.67c0.1,0.4-0.08,0.81-0.44,0.99c-0.13,0.06-0.29,0.1-0.43,0.11
				c-1.71,0.01-3.42,0-5.14,0c-3.19,0-6.39,0-9.58,0c-0.36,0-0.72,0-1.08,0c-0.53,0-0.93-0.38-0.93-0.89c0-0.5,0.4-0.88,0.92-0.88
				c1.71,0,3.42,0,5.12,0c0.04,0,0.07,0,0.11,0c0.03-0.16,0.04-0.32,0.08-0.46c0.22-0.71,0.69-1.14,1.43-1.28
				c0.02,0,0.05-0.01,0.07-0.02C17.48,5.67,18.2,5.67,18.93,5.67z"/>
		</g>
	</g>
</g>
</svg>
