<?xml version="1.0" encoding="utf-8"?>
<!-- Generator: Adobe Illustrator 24.1.2, SVG Export Plug-In . SVG Version: 6.00 Build 0)  -->
<svg version="1.1" id="Calque_1" xmlns="http://www.w3.org/2000/svg" xmlns:xlink="http://www.w3.org/1999/xlink" x="0px" y="0px"
	 viewBox="0 0 35.3 35.9" style="enable-background:new 0 0 35.3 35.9;" xml:space="preserve">
<style type="text/css">
	.st0{fill:#495867;}
</style>
<g>
	<g>
		<g>
			<path class="st0" d="M12.5,30.7c-0.1,0-0.1,0-0.2-0.1c-0.3-0.1-0.5-0.4-0.5-0.7c-0.2-1.3-0.4-2.7-0.6-4c-0.2-1.4-0.4-2.9-0.6-4.3
				c-0.2-1.3-0.4-2.6-0.6-4c-0.2-1.4-0.4-2.7-0.6-4.1c0-0.2-0.1-0.3-0.1-0.5c-0.2,0-0.4,0-0.6,0c-0.2,0-0.4,0-0.5,0
				c-0.5-0.1-0.8-0.5-0.7-0.9c0-0.5,0.4-0.8,0.9-0.8c2.1,0,4.3,0,6.4,0c2.9,0,5.7,0,8.6,0c1.5,0,2.9,0,4.4,0c0.5,0,0.9,0.4,0.9,0.9
				s-0.4,0.9-0.9,0.9c-0.3,0-0.6,0-1,0c0,0.3-0.1,0.7-0.1,1c-0.1,0.9-0.3,1.7-0.4,2.6c-0.1,0.9-0.3,1.9-0.4,2.8
				c-0.1,0.9-0.3,1.9-0.4,2.8c-0.1,0.9-0.3,1.9-0.4,2.8c-0.1,1-0.3,2.1-0.5,3.1c-0.1,0.6-0.2,1.2-0.3,1.7c-0.1,0.4-0.3,0.7-0.7,0.8
				c0,0,0,0,0,0C19.8,30.7,16.2,30.7,12.5,30.7z M18.9,28.9c0.3-5.3,0.5-10.6,0.8-15.9c-1.1,0-2.3,0-3.4,0
				c0.3,5.3,0.5,10.6,0.8,15.9C17.7,28.9,18.3,28.9,18.9,28.9z M15.3,28.9c-0.3-5.3-0.5-10.6-0.8-15.9c-1.1,0-2.3,0-3.4,0
				c0.8,5.3,1.6,10.6,2.4,15.9C14.1,28.9,14.7,28.9,15.3,28.9z M24.9,13.1c-1.1,0-2.3,0-3.4,0c-0.3,5.3-0.5,10.6-0.8,15.9
				c0.6,0,1.2,0,1.8,0C23.3,23.6,24.1,18.4,24.9,13.1z"/>
		</g>
		<g>
			<path class="st0" d="M19.1,6c0.2,0.1,0.3,0.1,0.5,0.1c0.7,0.3,1,0.9,1.1,1.6c0,0,0.1,0,0.1,0c1.7,0,3.4,0,5.1,0
				c0.4,0,0.8,0.3,0.9,0.7c0.1,0.4-0.1,0.8-0.4,1c-0.1,0.1-0.3,0.1-0.4,0.1c-1.7,0-3.4,0-5.1,0c-3.2,0-6.4,0-9.6,0
				c-0.4,0-0.7,0-1.1,0c-0.5,0-0.9-0.4-0.9-0.9c0-0.5,0.4-0.9,0.9-0.9c1.7,0,3.4,0,5.1,0c0,0,0.1,0,0.1,0c0-0.2,0-0.3,0.1-0.5
				c0.2-0.7,0.7-1.1,1.4-1.3c0,0,0,0,0.1,0C17.6,6,18.3,6,19.1,6z"/>
		</g>
	</g>
</g>
</svg>
