<?xml version="1.0" encoding="utf-8"?>
<!-- Generator: Adobe Illustrator 24.1.2, SVG Export Plug-In . SVG Version: 6.00 Build 0)  -->
<svg version="1.1" id="Calque_1" xmlns="http://www.w3.org/2000/svg" xmlns:xlink="http://www.w3.org/1999/xlink" x="0px" y="0px"
	 viewBox="0 0 35.28 35.89" style="enable-background:new 0 0 35.28 35.89;" xml:space="preserve">
<style type="text/css">
	.st0{fill:#495867;}
</style>
<g>
	<g>
		<g>
			<path class="st0" d="M17.64,2.42c8.67,0,15.73,7.05,15.73,15.73s-7.05,15.73-15.73,15.73S1.91,26.82,1.91,18.15
				S8.97,2.42,17.64,2.42 M17.64,1.42C8.4,1.42,0.91,8.91,0.91,18.15c0,9.24,7.49,16.73,16.73,16.73s16.73-7.49,16.73-16.73
				C34.36,8.91,26.88,1.42,17.64,1.42L17.64,1.42z"/>
		</g>
	</g>
	<g>
		<g>
			<path class="st0" d="M12.54,30.69c-0.07-0.03-0.15-0.05-0.22-0.08c-0.3-0.15-0.46-0.39-0.51-0.72c-0.2-1.33-0.4-2.66-0.6-3.99
				c-0.21-1.43-0.43-2.85-0.64-4.28c-0.2-1.32-0.4-2.64-0.6-3.95c-0.21-1.37-0.41-2.74-0.61-4.1c-0.02-0.16-0.05-0.32-0.08-0.5
				c-0.21,0-0.42,0-0.63,0c-0.17,0-0.35,0.01-0.51-0.02c-0.47-0.08-0.78-0.49-0.74-0.94c0.04-0.46,0.42-0.81,0.89-0.81
				c2.14,0,4.27,0,6.41,0c2.85,0,5.71,0,8.56,0c1.46,0,2.92,0,4.38,0c0.51,0,0.91,0.39,0.91,0.88c0,0.49-0.39,0.88-0.91,0.88
				c-0.32,0-0.65,0-0.98,0c-0.05,0.34-0.1,0.68-0.15,1.02c-0.13,0.87-0.26,1.73-0.39,2.6c-0.14,0.92-0.28,1.85-0.42,2.77
				c-0.14,0.93-0.28,1.86-0.42,2.79c-0.14,0.92-0.28,1.85-0.41,2.77c-0.15,1.03-0.31,2.06-0.46,3.08c-0.09,0.58-0.18,1.16-0.26,1.74
				c-0.06,0.44-0.28,0.72-0.72,0.83c-0.01,0-0.01,0.01-0.02,0.02C19.79,30.69,16.16,30.69,12.54,30.69z M18.9,28.92
				c0.26-5.29,0.53-10.57,0.79-15.85c-1.15,0-2.29,0-3.43,0c0.26,5.29,0.53,10.57,0.79,15.85C17.67,28.92,18.28,28.92,18.9,28.92z
				 M15.29,28.92c-0.26-5.29-0.53-10.57-0.79-15.85c-1.15,0-2.28,0-3.43,0c0.79,5.29,1.59,10.57,2.38,15.85
				C14.06,28.92,14.67,28.92,15.29,28.92z M24.89,13.07c-1.15,0-2.28,0-3.43,0c-0.26,5.29-0.53,10.57-0.79,15.85
				c0.63,0,1.23,0,1.84,0C23.3,23.64,24.09,18.36,24.89,13.07z"/>
		</g>
		<g>
			<path class="st0" d="M19.06,6.01c0.16,0.05,0.33,0.07,0.48,0.14c0.69,0.31,1.04,0.86,1.09,1.62c0.04,0,0.08,0,0.13,0
				c1.71,0,3.42,0,5.14,0c0.42,0,0.78,0.27,0.87,0.67c0.1,0.4-0.08,0.81-0.44,0.99c-0.13,0.06-0.29,0.1-0.43,0.11
				c-1.71,0.01-3.42,0-5.14,0c-3.19,0-6.39,0-9.58,0c-0.36,0-0.72,0-1.08,0c-0.53,0-0.93-0.38-0.93-0.89c0-0.5,0.4-0.88,0.92-0.88
				c1.71,0,3.42,0,5.12,0c0.04,0,0.07,0,0.11,0c0.03-0.16,0.04-0.32,0.08-0.46c0.22-0.71,0.69-1.14,1.43-1.28
				c0.02,0,0.05-0.01,0.07-0.02C17.62,6.01,18.34,6.01,19.06,6.01z"/>
		</g>
	</g>
</g>
</svg>
